<?xml version="1.0" encoding="UTF-8"?>
<svg version="1.1" viewBox="0 0 326.94 311.63" xmlns="http://www.w3.org/2000/svg" xmlns:cc="http://creativecommons.org/ns#" xmlns:dc="http://purl.org/dc/elements/1.1/" xmlns:rdf="http://www.w3.org/1999/02/22-rdf-syntax-ns#">
<metadata>
<rdf:RDF>
<cc:Work rdf:about="">
<dc:format>image/svg+xml</dc:format>
<dc:type rdf:resource="http://purl.org/dc/dcmitype/StillImage"/>
</cc:Work>
</rdf:RDF>
</metadata>
<defs>
<style>.cls-1{fill:none;}.cls-2{fill:#f4f3ef;}.cls-3{clip-path:url(#a);}.cls-4{fill:#6060bf;}.cls-5{fill:#50b271;}.cls-6{fill:#ffb85a;}.cls-7{fill:#ff8db6;}.cls-8{fill:#997664;}.cls-9{fill:#d81e1e;}.cls-10{fill:#592116;}.cls-11{fill:#992d17;}</style>
<clipPath id="a">
<path class="cls-1" d="m960 22v1556a6 6 0 0 1-6 6h-932a6 6 0 0 1-6-6v-1556a6 6 0 0 1 6-6h932a6 6 0 0 1 6 6z"/>
</clipPath>
</defs>
<g transform="translate(.51958 -438.42)">
<path class="cls-5" d="m168.07 746.2c-19.79-13.59-26.15-64.31-2-77 29.77 5.78 25.14 66 2 77zm-130.35-169.46c-98.87 0 48.65-69.24 46-22.88-6.11 16.75-28.72 22.31-46 22.88z"/>
<path class="cls-7" d="m214.47 669.34c-18.39-3.34-27.83-19.28-41.59-31.34-14.95 6.79-28.81 13.27-46.5 6.55-15-4.08-0.37-20.89-7.75-29.11-5.49-9-22.1-4.29-26.56-15.11-10.57-18.47 18.48-36.77 14.14-53.33-10.49-13.09-14.86-29.67-8.44-43.87 4.59-6.27 18.12-1.88 22.29-9.94 9.05-9.62-5.21-24.49 6.76-29.76 62-21.09 34.61 34.94 85.71-16.54 7.8-4.61 10.49-3 14.07 8.42 11 38.54 58.89-13.57 48.37 47.63-1.06 15.41 29.79 3.32 40.2 25.91 9.09 8.83-20.29 25.68-3.85 35.79 20.44 18.38-14.57 33.87-30.35 32.9-4.68-1.12-9.66 2.94-7.91 7.86 6.46 13.24-1.07 58.54-24.34 44.36-15.82-7.08-22 16.5-34.25 19.58zm-17.79-133.22c-11.13 3.69-22.59 17.47-16.41 29.61-0.1 4.17 1.06 7.66 5.37 9.16 4.88 3.79 9.1 8.06 16.07 6.17 6 1.29 9.47-1.52 13.58-5.46 6.41-3 6.34-9.23 7.54-15.23 2.17-15.1-13.42-21.83-26.15-24.25z"/>
<path class="cls-9" d="m105.94 707.79c-28 2.83-30.3-42.59-2.27-42 26.97-1.66 29.82 42.99 2.27 42zm91.25-127.41c-29.31-0.76-19.7-47.44 4.11-41.38 30.32 4.58 24.7 44.61-4.11 41.38z"/>
<path d="m0 568.81c7.41-24.6 37.32-37.06 61.89-33.49 8.75 1.25 19.61-0.42 25.59 10.44 1.21 2.21 8.48 1.09 13.77 1.58-10.8-14.32-11.66-29.61-9.42-45.57 0.77-5.48 3.93-6.92 9-6.89 14.27 0.1 20.91-7.68 15.85-20.58-4.87-12.3 3.44-14.3 11.02-17.13 16.33-6.25 32.07-4.74 47.3 3.82 8.74 12.45 13 1.74 18.48-3.48 8.79-8.4 16.67-18.37 30.49-18.59 3.23-0.05 4.86 1.17 5.13 4.57 1.43 18.63 16.57 29.64 32.68 20.78 16.72-9.21 17.25 1.55 19.06 11.74 1.42 8 4.33 16.2 0.46 24.68-4.08 15.62 17.27-9.24 43.94 31.72 2.54 3.06-2.63 5.78-4.85 8.05-12.83 13.15-12.8 16.29 0.93 28.17 13.84 19.32-24.67 37.78-42.1 34.5-2.75-0.48-2.43 1.94-2 3.38 5.51 19.41 1 36.56-11.29 52.15-2.94 3.74-6.56 0.65-8.09-0.14-14.65-7.6-25.3-4.33-31.79 10.78-5.33 12.4-13.64 4.09-19.94 2.53-13.52-3.37-22.38-13.62-30.06-24.14-6.92 13.32 5.92 20.54 10 30.65 12.85 21.59-3.59 103.25-32.95 57.51-23.45-63 17.09-59.62 13.34-86.44-11.61 7-21.67 16.7-34.56 22-2.85 1.3-6.17 3.74-3.06 9.22 6.59 11.62-1.16 20.89-8.7 27.73-9.6 8.69-27.12 5.5-35.12-4.36-14.08-17.23 0.76-43.71 22.54-42.85 2.46 0 5.12 1.75 7.42 3.14 16.19 9.83 20.52-10.05 32-12.29-66.88 0.21-6.78-31.2-43.37-38.68-7.3-1.89-18 3.43-18.59-10.12-3.54-18.14 7-34.33 15.32-49.13-14.32-4.22-17.89 10.55-26.81 16.35-14.66 9.54-30.42 10.05-46.73 8.27-7.51-2.1-24.54-1.78-26.78-9.88zm121.5 117.44c0-21.76-35.41-21.8-34 0.5-0.77 22.64 36.57 23.11 34-0.5zm51.57-4.61c-1.44 8 4 45.13-4.78 45-3.83 0.18-3.37-4.26-3.37-7.37v-46.16c-16.62 20.29-10.64 46 0.58 66.84 1.47 2.53 2.63 3.28 5.18 0.79 20.98-20.98 6.79-79.92 2.39-59.1zm-60.57-127.34c-8 8.51-11.28 19.41-16.44 29.33-5.3 10.21-0.27 20.47 10.25 21.31 14 1.12 21.66 12.2 17.67 25.55-1.28 4.3-2.31 8.59 3.49 10.23 34.4 11.69 42.46-18 51.08-4.85 7.13 11.1 15.9 20.26 27.59 25.86 19.39 14.54 12.41-22.9 44.33-15.65 2.71 0.63 8.48 6.59 12.67-0.31 7.83-12.89 11-26.75 5.53-40.7-6.2-15.89 6.53-11.52 12.2-11.5 10.197 0.15041 20.108-3.3744 27.92-9.93 17.3-14.32-17.21-16.31-3-39.69 2.2-3.94 10.65-6.68 6.19-12.7-9.19-12.42-21.23-19-37.4-14.39-3.26 0.93-8.32-2.45-7.18-3.64 4.92-5.1 2.66-11.53 4.65-17 2.79-7.69-0.76-14.88-4.41-21.19-4.15-9-30.85 17.68-44.81-18.38-3.18-9.43-3.06-9.22-8.29-6.24-11 4-25.84 33.34-36.31 23.1-13-11.92-33.45-13.61-50-6.27-1.88 0.69-3.47 1.82-2.24 5.19 3.91 10.74 0.3 30-16.52 30.45-10.8 0.27-11.08 6.22-10.31 13.67 0.3 26.45 18.18 29.88 13.34 37.75zm-105.45 14.31c25.75 5.56 50.9 9 72.9-13.32-13.13-0.94-24 2.77-35.19 5.19-2.22 0.18-14.35 2.12-13.26-1.44 1.46-1.66 2.31-3.71 5.16-4.2 14.05-2.39 27.52-7.64 43.7-8-20.75-7.84-54.36-7.15-73.31 21.77zm129.15-14.61c-0.27-3.19 2.91-3.09 5.46-3.05 11.07 0.19 22.15 0.28 33.22 0.45 3.65 0 1.7-4.12 4-5.06-6.23-10-18-15-26.72-22.66-2.75-2.09 0-4.64-0.5-6.93 11.76 0.61 34.34 27.15 37.26 19.1 4.22-11.38-5.58-23.26-3.91-35.2 0.08-1.45-0.85-3.61 2-3.65 2 0 3.52 0.33 4.14 2.64 2.59 9.76 6 19.38 7.66 29.29 0.82 4.91 4.1 5.07 6.72 5.81 3.44 1 2.59-3 3.36-4.82 4.11-9.92 8.01-19.92 12.31-29.79 0.49-1.11 3-1.33 4.6-2 4.74 8.76-6.3 22.89-8.55 32.55-0.91 2.55-4.59 5.1-2 8 6 8.61 22.9-11 29.9-14.43 6.08-4.79 13.17 1.34 5.55 5.9-3.92 4.39-27.83 17.17-25.36 21.56 6.9 4.71 44.75-4.32 44.44 6.13 0.2 4.09-3.67 3.15-6.33 3.17-11.17 0.09-22.34-0.1-33.5 0.06-1.53 0-3.52-0.93-3.79 2.35-0.22 2.71-1.74 5.28 1.39 7.14 7 4.16 13.95 8.37 21.06 12.32 6.08 3.21 3.43 11.14-2.9 6.31-7-4.3-14.35-8-21.44-12.15-4.22-2.46-5.75 1.85-8.37 3.12s0.23 2.39 0.8 3.63c0.95 4.47 14.38 25.47 9.17 26.52-10.06-0.26-13-14.71-17-22.21-1.95-4.18-5.74-2.83-9-3.1s-2.34 2.14-2.81 3.92c-3 6.16-3.24 25.77-12.23 24.1-3.06-0.53-1.93-3-1.7-4.32 1.12-6.63 1.24-13.93 4.3-19.59 3.7-6.85-0.35-8.76-4.4-11.2-4.29-2.59-6.76 1.42-9.61 3.5-5.1 3.72-10 7.8-15.24 11.23-1.66 1.08-4 0.91-5.88-1.65-5.72-5 22.69-17.21 24.29-23.94-3.58-1.06 1.57-8.05-5.82-7.43-9.51 0.8-19.19-0.34-28.79-0.59-2.9395 0.0757-5.4491-2.1082-5.78-5.03zm62.8 22.25c8.24-1.2 19.77-3.31 18.42-12.51-0.86-14.9-6.37-19.79-16.53-20.76-24.09-2.21-24.62 34.91-1.89 33.27z" color="#000000" color-rendering="auto" dominant-baseline="auto" fill="#592116" image-rendering="auto" shape-rendering="auto" solid-color="#000000" stop-color="#000000"/>
<path d="m223.96 438.42c-7.0287 0.11189-12.572 2.7164-17.422 6.3262-4.8497 3.6098-9.0287 8.219-13.406 12.402-2.8168 2.6832-5.2714 6.639-7.9375 8.3027-1.3331 0.83185-2.6447 1.1242-4.2129 0.51563-1.5682-0.60855-3.4196-2.1944-5.5742-5.2637l-0.0664-0.0937-0.0996-0.0547c-15.336-8.6198-31.267-10.15-47.723-3.8516-3.7689 1.4069-7.8013 2.6011-10.352 5.125-1.2756 1.2624-2.1602 2.88-2.3848 4.9512-0.22456 2.0712 0.19256 4.5805 1.4297 7.7051 2.4896 6.3481 2.0746 11.293-0.60351 14.67-2.6784 3.3774-7.7338 5.2759-14.777 5.2266h-2e-3c-2.5829-0.0153-4.7463 0.33444-6.3965 1.4648-1.6501 1.1304-2.7043 3.0281-3.1016 5.8555-2.2066 15.722-1.352 30.909 8.9746 45.123-2.4653-0.14377-5.1657-0.0787-7.4629-0.12891-1.3007-0.0284-2.464-0.11331-3.3359-0.3125-0.87198-0.19918-1.3991-0.51138-1.5918-0.86328-3.0569-5.5515-7.4355-7.9533-12.078-9.0703-4.6426-1.117-9.5634-1.0085-13.879-1.625v2e-3c-12.395-1.801-26.103 0.43699-37.674 6.2285-11.57 5.7915-21.014 15.156-24.766 27.611l-0.041016 0.13867 0.037109 0.13867c0.60361 2.1827 2.2095 3.7863 4.3105 4.9688s4.715 1.9731 7.4785 2.5762c5.527 1.2061 11.684 1.6618 15.338 2.6836l0.04102 0.01 0.04102 6e-3c16.355 1.7849 32.266 1.2772 47.057-8.3477 4.5971-2.9891 7.7255-8.1735 11.465-12.004 1.8697-1.9152 3.8767-3.4898 6.2637-4.3359 2.225-0.78871 4.8495-0.86627 8.0215-0.0508-8.2495 14.609-18.546 30.702-15.027 48.814 0.15574 3.4279 0.95078 5.7483 2.2383 7.2891 1.2935 1.548 3.0527 2.2608 4.9531 2.5723 3.8008 0.62287 8.2852-0.22193 11.768 0.67969l0.0117 2e-3 0.0137 4e-3c4.527 0.92543 7.5171 2.2177 9.416 3.7207s2.7329 3.1962 2.9961 5.0859c0.52633 3.7795-1.4122 8.3676-2.4726 12.811-0.53025 2.2214-0.8355 4.4191-0.42578 6.4942 0.40971 2.0751 1.564 4.0058 3.8242 5.584 4.2709 2.9821 12.653 4.7729 27.672 4.9238-4.7026 1.9894-8.2625 6.4642-12.105 9.8672-2.2394 1.9829-4.5775 3.5505-7.3066 4.043-2.7291 0.49243-5.894-0.063-9.8691-2.4766v-2e-3c-2.286-1.3815-4.9799-3.2092-7.6758-3.2109h-4e-3c-22.18-0.85766-37.268 26.112-22.928 43.664 4.0959 5.0482 10.582 8.3561 17.277 9.3164 6.6953 0.96029 13.632-0.4334 18.566-4.9004 3.7901-3.4382 7.6656-7.5035 9.7715-12.24 2.1059-4.7367 2.3939-10.175-0.9707-16.107h-2e-3c-1.5016-2.6459-1.4116-4.3911-0.70118-5.6894 0.71041-1.2983 2.1509-2.1967 3.5352-2.8281 12.72-5.2353 22.658-14.631 33.895-21.553 0.64894 6.1222-1.0209 10.603-3.7598 14.785-2.8688 4.3808-6.8591 8.451-10.26 13.693-3.4007 5.2424-6.1937 11.669-6.6426 20.721-0.44885 9.0519 1.4321 20.721 7.3106 36.514l0.0195 0.0488 0.0293 0.0449c3.694 5.7549 7.1958 9.5367 10.52 11.697 3.3237 2.1605 6.4997 2.683 9.3789 1.8613 5.7584-1.6433 10.186-8.4016 13.297-17.166 3.1104-8.7644 4.8822-19.606 5.0762-29.635 0.19372-10.016-1.1612-19.208-4.459-24.768-2.099-5.1659-6.3348-9.4995-9.1387-14.148-2.6922-4.4638-4.0005-9.1523-1.1465-15.258 7.577 10.288 16.397 20.275 29.781 23.611h2e-3c2.9987 0.74254 6.6696 3.2209 10.354 3.9746 1.842 0.37687 3.7281 0.30068 5.4785-0.71094 1.7504-1.0116 3.3284-2.9182 4.6875-6.0801 3.211-7.4759 7.399-11.929 12.533-13.629s11.311-0.66994 18.566 3.0938v2e-3h2e-3c0.6717 0.34683 2.0221 1.3683 3.6113 1.8066 1.5892 0.43835 3.5266 0.19825 5.0996-1.8027 12.364-15.683 16.93-33.042 11.379-52.596l-2e-3 -2e-3v-4e-3c-0.20276-0.679-0.34629-1.5942-0.19141-2.1289 0.0774-0.26736 0.19078-0.42701 0.41016-0.54101s0.59778-0.18227 1.2168-0.0742l-8e-3 -2e-3c8.9483 1.6839 22.964-2.1592 33.145-8.8476 5.0902-3.3442 9.2237-7.41 11.219-11.939 1.9951-4.5294 1.7822-9.5462-1.7637-14.496l-0.0351-0.0469-0.0449-0.0391c-3.4243-2.9629-5.9821-5.3745-7.6777-7.498-1.6956-2.1235-2.5186-3.9326-2.5742-5.748-0.0557-1.8155 0.65655-3.7048 2.2109-5.9863 1.5542-2.2812 3.9427-4.9293 7.1426-8.209 1.0441-1.0677 2.9042-2.3253 4.2188-3.7383 0.65729-0.7065 1.1936-1.4639 1.3867-2.3223 0.19315-0.85841-0.017-1.803-0.72852-2.6602-13.38-20.525-25.569-24.671-33.834-25.539-4.1362-0.43458-7.3179-0.10489-8.9648-0.55664-0.82349-0.22587-1.2199-0.53293-1.4219-1.2695-0.20185-0.73624-0.12106-1.9912 0.3789-3.9062 2.5e-4 -9.5e-4 -2.4e-4 -1e-3 0-2e-3 3.9038-8.6475 0.95411-16.977-0.45117-24.895-0.90117-5.0734-1.428-10.37-4.0527-13.385-1.3124-1.5073-3.1974-2.3836-5.748-2.25-2.5506 0.13354-5.7752 1.222-9.9922 3.5449-7.9204 4.356-15.501 3.8135-21.328-0.0605-5.8276-3.8741-9.908-11.132-10.613-20.32-0.14092-1.7744-0.65266-3.0854-1.627-3.9199-0.97429-0.83449-2.3286-1.1373-4.0078-1.1113zm0.0156 1c1.5508-0.024 2.6261 0.25809 3.3418 0.8711 0.71571 0.613 1.1522 1.6127 1.2812 3.2383 0.72517 9.4408 4.9296 17.003 11.057 21.076 6.1275 4.0734 14.174 4.6075 22.363 0.10351v-2e-3c4.143-2.2821 7.2547-3.301 9.5625-3.4219s3.8031 0.603 4.9395 1.9082c2.2728 2.6104 2.9154 7.7877 3.8242 12.904 1.4303 8.0578 4.2782 16.102 0.49804 24.385l-0.0176 0.0391-0.0117 0.043c-0.51938 1.9884-0.66387 3.3722-0.375 4.4258 0.28887 1.0536 1.1 1.6887 2.1211 1.9688 2.0421 0.56013 5.0979 0.16302 9.123 0.58594 8.0502 0.84584 19.858 4.7486 33.135 25.139l0.0156 0.0234 0.0195 0.0215c0.55851 0.67284 0.65466 1.2176 0.52344 1.8008-0.13122 0.58315-0.54933 1.2216-1.1445 1.8613-1.1904 1.2795-3.0253 2.5184-4.2012 3.7207h-2e-3c-3.2145 3.2947-5.6326 5.9688-7.252 8.3457-1.6194 2.3769-2.4491 4.4818-2.3848 6.5801 0.0643 2.0983 1.0223 4.1224 2.793 6.3398 1.7588 2.2026 4.3377 4.6262 7.7441 7.5762 3.3522 4.6988 3.5161 9.225 1.6426 13.479-1.8777 4.2631-5.8655 8.2301-10.852 11.506-9.9721 6.5516-23.928 10.297-32.41 8.7012h-4e-3l-2e-3 -2e-3c-0.75599-0.13196-1.369-0.0779-1.8496 0.17187-0.48062 0.24975-0.7776 0.69471-0.91015 1.1524-0.26512 0.91528-0.0339 1.9304 0.19335 2.6914 5.4666 19.264 1.012 36.202-11.203 51.697v2e-3c-1.367 1.739-2.7105 1.8242-4.0488 1.4551-1.3383-0.36915-2.5597-1.2873-3.418-1.7305-7.395-3.8363-13.866-4.969-19.342-3.1562-5.4758 1.8128-9.8597 6.5495-13.139 14.184-1.3059 3.0381-2.7639 4.7404-4.2676 5.6094-1.5037 0.86901-3.0881 0.94329-4.7774 0.59766-3.3786-0.69126-7.0132-3.1493-10.314-3.9668v2e-3c-13.339-3.3248-22.114-13.454-29.777-23.951l-0.4746-0.65039-0.37305 0.71484c-3.5354 6.8051-2.0075 12.212 0.89062 17.018 2.8981 4.8052 7.1025 9.1263 9.0898 14.051l0.0156 0.0352 0.0195 0.0332c3.1177 5.2382 4.522 14.337 4.3301 24.262s-1.9562 20.686-5.0195 29.318c-3.0634 8.6319-7.447 15.063-12.627 16.541-2.59 0.73912-5.4157 0.30598-8.5606-1.7383-3.1369-2.0391-6.5596-5.7076-10.195-11.363-5.8276-15.674-7.6698-27.194-7.2305-36.053 0.43989-8.8712 3.15-15.088 6.4844-20.229 3.3343-5.1401 7.3109-9.1922 10.256-13.689 2.945-4.4973 4.8314-9.4788 3.877-16.305l-0.10547-0.75-0.64844 0.39258c-11.676 7.0395-21.716 16.712-34.492 21.965l-8e-3 4e-3 -0.01 4e-3c-1.4658 0.66859-3.1115 1.6411-3.9961 3.2578-0.88459 1.6167-0.89943 3.8299 0.70899 6.6641 3.2254 5.6872 2.9343 10.694 0.92773 15.207-2.0066 4.5133-5.7794 8.5045-9.5293 11.906-4.6652 4.2222-11.288 5.5775-17.752 4.6504-6.4647-0.9272-12.738-4.1433-16.643-8.9551v-2e-3h-2e-3c-13.812-16.902 0.76608-42.877 22.133-42.033h0.02c2.2229 0 4.8492 1.6705 7.1621 3.0684v-2e-3c4.1199 2.5014 7.5676 3.1478 10.562 2.6074 2.9949-0.54039 5.493-2.241 7.7949-4.2793 4.6038-4.0766 8.5193-9.4857 13.998-10.555l-0.09729-0.99041c-16.681 0.0524-25.394-1.9048-29.559-4.8125-2.0821-1.4538-3.0511-3.1107-3.416-4.959-0.36494-1.8483-0.0974-3.9092 0.41796-6.0684 1.0308-4.3184 3.0761-8.9726 2.4902-13.18-0.29293-2.1035-1.288-4.0887-3.3672-5.7344-2.0764-1.6435-5.2098-2.9678-9.8203-3.9121-3.8156-0.98449-8.3269-0.11866-11.846-0.69531-1.7608-0.28856-3.2428-0.90208-4.3496-2.2266-1.1068-1.3245-1.8652-3.4139-2.0098-6.7344l-2e-3 -0.0371-0.0078-0.0371c-3.4936-17.902 6.9336-33.968 15.266-48.789l0.30664-0.54687-0.60156-0.17774c-3.6613-1.0789-6.6945-0.95083-9.2832-0.0332-2.5887 0.91763-4.7187 2.6072-6.6465 4.582-3.8557 3.9496-6.97 9.0504-11.293 11.861h-2e-3c-14.53 9.4551-30.137 9.9685-46.402 8.1934-3.8592-1.0649-9.9196-1.5044-15.314-2.6816-2.7127-0.59198-5.2443-1.3714-7.2011-2.4727-1.9141-1.0773-3.2342-2.4493-3.7754-4.2559 3.6942-12.056 12.867-21.166 24.191-26.834 11.38-5.696 24.909-7.9037 37.084-6.1348 4.4345 0.63351 9.3192 0.53196 13.789 1.6074 4.4692 1.0753 8.5106 3.2715 11.434 8.5781 0.41233 0.7531 1.2493 1.1297 2.2461 1.3574s2.2078 0.30883 3.5371 0.33789c2.6586 0.0581 5.7897-0.0972 8.3789 0.14258l1.127 0.10352-0.68164-0.90235c-10.705-14.194-11.556-29.3-9.3242-45.199 0.37273-2.6526 1.2859-4.2159 2.6758-5.168 1.3899-0.9521 3.3391-1.3057 5.8262-1.291 7.2264 0.0506 12.626-1.8929 15.57-5.6055 2.9441-3.7126 3.3177-9.1072 0.74805-15.658v-2e-3c-1.1979-3.0254-1.566-5.3769-1.3652-7.2285 0.20075-1.8516 0.95309-3.2188 2.0938-4.3477 2.2813-2.2577 6.192-3.478 10.002-4.9004h2e-3l2e-3 -2e-3c16.18-6.1925 31.705-4.7116 46.807 3.7539 2.174 3.0656 4.1058 4.797 5.9375 5.5078 1.8599 0.72176 3.5941 0.34424 5.1035-0.59766 3.0189-1.8838 5.4345-5.8928 8.0977-8.4297h2e-3c4.4125-4.2167 8.5678-8.7921 13.311-12.322s10.05-6.0208 16.842-6.1289zm-5.324 8.6816c-0.39496-0.0141-0.81311 0.0731-1.2363 0.23242-0.84644 0.31872-1.8204 0.89729-3.125 1.6406l0.0762-0.0352c-2.9006 1.0548-5.9087 3.6871-9.0273 6.8574-3.1186 3.1703-6.332 6.8924-9.5137 10.154-3.1817 3.2619-6.3401 6.0562-9.2598 7.377-1.4598 0.66038-2.8485 0.95329-4.1641 0.79688-1.3156-0.15641-2.5792-0.75503-3.8242-1.9727l-0.012-0.012c-13.167-12.073-33.8-13.767-50.51-6.3691-8.1e-4 3e-4 -1e-3 2e-3 -2e-3 2e-3 -0.97928 0.35963-1.9681 0.85147-2.541 1.7969-0.57339 0.94618-0.64105 2.2642 4e-3 4.0312 1.9052 5.2332 1.9839 12.644-0.47851 18.725-2.4624 6.0808-7.3637 10.835-15.584 11.055-5.4916 0.13729-8.4996 1.773-9.9199 4.4043-1.4143 2.6202-1.2604 6.0451-0.87695 9.7715 0.15128 13.337 4.7689 20.955 8.6992 26.139 1.9651 2.5921 3.7481 4.5891 4.7012 6.3438 0.95274 1.754 1.1419 3.1604 0.0137 4.9961-4e-4 6.4e-4 4e-4 1e-3 0 2e-3 -8.0479 8.6041-11.341 19.526-16.457 29.361v2e-3c-2.7114 5.2232-2.8003 10.512-0.81445 14.615 1.9859 4.103 6.0521 6.9895 11.467 7.4219 6.8766 0.55013 12.137 3.5317 15.211 7.9766 3.0736 4.4448 3.9785 10.379 2.0195 16.934-0.64251 2.1584-1.2594 4.3572-0.92383 6.3379 0.33533 1.9792 1.7392 3.6599 4.752 4.5137 2e-3 6.2e-4 4e-3 1e-3 6e-3 2e-3 17.318 5.8765 28.158 1.3226 35.596-3.0215 3.7209-2.1732 6.6247-4.2687 8.9844-4.9766 1.1798-0.35393 2.1937-0.37867 3.1836 0.0391 0.9899 0.41774 1.9891 1.3096 3.0332 2.9023 7.1505 11.131 15.974 20.352 27.736 26.004 2.4462 1.8303 4.5076 2.8728 6.3281 3.2754 1.8279 0.4042 3.4164 0.14288 4.7949-0.58203 2.757-1.4498 4.7-4.6106 7.0254-7.916 2.3254-3.3054 5.0018-6.7744 9.0274-8.9766s9.4232-3.1736 17.316-1.3809c0.54635 0.12754 1.4141 0.59768 2.4043 1.1387 0.99115 0.54152 2.1243 1.1471 3.3398 1.5195s2.5323 0.50976 3.832 0.0645c1.2997-0.44531 2.5404-1.4659 3.6309-3.2617 7.8815-12.975 11.103-27.027 5.5684-41.143l2e-3 2e-3c-1.5318-3.9258-1.8593-6.5538-1.4863-8.2129s1.3632-2.429 2.8066-2.8418 3.3254-0.37536 5.1992-0.21289c1.8738 0.16248 3.7318 0.444 5.2129 0.44922 10.314 0.15072 20.338-3.4146 28.24-10.045l2e-3 -2e-3c2.1948-1.817 3.5967-3.4588 4.3809-5.0176 0.78445-1.5593 0.93091-3.045 0.61719-4.4316-0.62745-2.7733-2.9522-5.1201-5.2891-7.7168-2.3369-2.5967-4.7099-5.4219-5.6406-8.9824-0.93075-3.5605-0.46711-7.9005 3.0371-13.666l6e-3 -8e-3 4e-3 -8e-3c0.99121-1.7752 3.622-3.4675 5.5195-5.4688 0.94876-1.0006 1.7269-2.1095 1.9512-3.4199 0.22425-1.3104-0.14565-2.7713-1.3164-4.3516h2e-3c-4.632-6.26-10.006-11.078-16.291-13.744-6.2852-2.6658-13.472-3.1612-21.648-0.83007-1.4107 0.40244-3.408-0.14836-4.8555-0.97852-0.72373-0.41508-1.3102-0.89759-1.6113-1.2852-0.15059-0.19378-0.22174-0.36161-0.23633-0.44531-0.0146-0.0837-0.0162-0.0642 0.0215-0.10351h-2e-3c2.5594-2.6531 3.2576-5.6859 3.5605-8.6562s0.24653-5.9008 1.1992-8.5195c2.8645-7.8954-0.77133-15.248-4.4258-21.57-0.5811-1.2602-1.6431-1.9554-2.9121-2.1777s-2.7527-0.0423-4.4297 0.29883c-3.354 0.68218-7.4915 2.0376-11.896 2.5488-4.405 0.51128-9.0475 0.18878-13.461-2.4512-4.4132-2.6398-8.6346-7.6239-12.098-16.568-2.4e-4 -6e-4 2.3e-4 -1e-3 0-2e-3 -0.79007-2.343-1.3793-4.0984-1.9063-5.3809-0.52904-1.2876-0.98206-2.1272-1.6406-2.6133-0.32928-0.24303-0.70075-0.35892-1.0957-0.37305zm-0.88282 1.168c0.70138-0.26409 1.0221-0.25792 1.3848 0.01 0.36269 0.26768 0.80428 0.95537 1.3106 2.1875s1.0935 2.9859 1.8887 5.3438l8e-3 0.02c3.5169 9.0844 7.8688 14.288 12.518 17.068 4.6487 2.7807 9.556 3.1122 14.09 2.5859 4.5338-0.52623 8.7248-1.9003 11.98-2.5625 1.6279-0.3311 3.0186-0.4771 4.0586-0.29493 1.04 0.18218 1.7194 0.62351 2.1758 1.6133l0.01 0.0195 0.0117 0.0215c3.6379 6.2891 7.0826 13.299 4.373 20.768-1.0373 2.8513-0.9594 5.8726-1.2539 8.7598s-0.92461 5.6176-3.2852 8.0645h-2e-3v2e-3c-0.2473 0.25815-0.33987 0.64152-0.2832 0.9668 0.0567 0.32528 0.21723 0.61081 0.43164 0.88672 0.42882 0.55181 1.098 1.0786 1.9043 1.541 1.6125 0.92484 3.7757 1.5979 5.625 1.0703v2e-3c7.9932-2.2788 14.911-1.7895 20.986 0.78711 6.0748 2.5766 11.317 7.258 15.875 13.418 1.0592 1.4297 1.3073 2.5683 1.1328 3.5879-0.1745 1.0196-0.81017 1.971-1.6914 2.9004-1.7619 1.8581-4.4546 3.5062-5.6641 5.6699-4.2e-4 7.5e-4 -2e-3 1e-3 -2e-3 2e-3 -3.5905 5.9155-4.1423 10.588-3.1406 14.42 1.0027 3.8358 3.5114 6.7871 5.8633 9.4004 2.3519 2.6133 4.5232 4.9096 5.0566 7.2676 0.26675 1.179 0.15997 2.38-0.53515 3.7617-0.69513 1.3818-1.9981 2.9351-4.127 4.6973v2e-3l-2e-3 2e-3c-7.7202 6.4785-17.515 9.9611-27.592 9.8125h-6e-3c-1.3539-5e-3 -3.2149-0.27935-5.1289-0.44531-1.914-0.16596-3.8877-0.23038-5.5606 0.24805s-3.0585 1.594-3.5059 3.584c-0.44735 1.99-0.0389 4.7757 1.5293 8.7949 5.4049 13.784 2.2863 27.453-5.4922 40.258-1.0045 1.6542-2.0563 2.4778-3.1016 2.8359-1.0453 0.35814-2.1254 0.25958-3.2148-0.0742-1.0894-0.3338-2.1685-0.90581-3.1523-1.4434-0.98386-0.53754-1.8514-1.0464-2.6602-1.2344l-2e-3 -2e-3h-2e-3c-8.0668-1.8322-13.766-0.84397-18.016 1.4805-4.2491 2.3244-7.0239 5.9485-9.3672 9.2793-2.3433 3.3308-4.2867 6.3512-6.6719 7.6055-1.1926 0.62712-2.4888 0.8499-4.1152 0.49024-1.6265-0.35967-3.5824-1.3263-5.9707-3.1172l-0.0391-0.0293-0.0449-0.0215c-11.586-5.5503-20.288-14.631-27.385-25.68l-2e-3 -2e-3v-2e-3c-1.1109-1.6948-2.2472-2.7522-3.4824-3.2734-1.2352-0.52125-2.5339-0.47381-3.8594-0.0762-2.651 0.79527-5.5296 2.926-9.2012 5.0703-7.3432 4.2887-17.728 8.7294-34.795 2.9297l-0.0117-4e-3 -0.0137-4e-3c-2.7827-0.78683-3.7635-2.0694-4.043-3.7188-0.27943-1.6493 0.25899-3.7452 0.89648-5.8867 2.031-6.7955 1.1026-13.076-2.1562-17.789-3.2588-4.7127-8.8297-7.8325-15.953-8.4023-5.1053-0.40765-8.8123-3.0718-10.646-6.8613-1.8341-3.7895-1.7879-8.7319 0.80078-13.719 5.1892-9.9761 8.4606-20.814 16.361-29.219l0.0332-0.0371 0.0273-0.043c1.2904-2.0983 1.0612-4.0715 0.0137-6-1.0475-1.9285-2.8458-3.9172-4.7832-6.4727-3.8747-5.1108-8.3474-12.432-8.4961-25.545v-0.0234l-2e-3 -0.0234c-0.38296-3.7053-0.46942-6.9646 0.75782-9.2383 1.2272-2.2737 3.758-3.7482 9.0664-3.8809 8.5997-0.23008 13.914-5.331 16.484-11.678 2.5701-6.3467 2.497-13.935 0.49218-19.441v-2e-3c-0.58503-1.6029-0.47199-2.5342-0.0879-3.168 0.38411-0.63382 1.1313-1.0506 2.0312-1.3809l0.0312-0.012c16.384-7.2666 36.634-5.5778 49.459 6.1816l-0.0117-0.0117c1.3725 1.3424 2.8613 2.0666 4.4043 2.25 1.543 0.18344 3.1197-0.16616 4.6953-0.87891 3.1512-1.4255 6.3524-4.2968 9.5644-7.5898 3.2121-3.2931 6.4249-7.0144 9.5098-10.15 3.0848-3.136 6.0568-5.6719 8.6562-6.6172l0.0391-0.0156 0.0371-0.0215c1.3104-0.74666 2.283-1.3101 2.9844-1.5742zm-30.768 47.23c-0.77602 0.0109-1.3634 0.16557-1.793 0.48047-0.4296 0.31489-0.64837 0.77881-0.73047 1.2246-0.1642 0.89159 0.0646 1.813 0.0312 2.418l4e-3 -0.043c-0.85673 6.1254 1.2164 12.149 2.9258 18.02 1.7094 5.87 3.0562 11.558 1.0098 17.076v2e-3l-2e-3 2e-3c-0.31477 0.86776-0.74666 1.1494-1.5098 1.1855-0.7631 0.0361-1.8764-0.30049-3.1953-0.96484-2.6379-1.3287-6.0986-3.8996-9.8359-6.75-3.7373-2.8504-7.7607-5.9809-11.605-8.4473-3.8447-2.4664-7.4981-4.2913-10.617-4.4531l-0.6543-0.0332 0.14063 0.64062c0.20099 0.92057-0.29362 2.0601-0.5918 3.3164-0.14909 0.62816-0.23829 1.2979-0.0742 1.9805 0.16358 0.6805 0.59343 1.3427 1.3477 1.918 8.7206 7.6519 20.249 12.635 26.41 22.268-0.36965 0.30758-0.7783 0.60246-0.93359 1.0098-0.22646 0.59397-0.3094 1.2162-0.43164 1.7637-0.12225 0.54742-0.28046 0.99949-0.54688 1.291-0.26641 0.29152-0.65226 0.49609-1.4707 0.49609-11.07-0.16998-22.148-0.26126-33.213-0.45117-1.2717-0.0199-2.7399-0.0738-3.957 0.3418-0.60855 0.20778-1.1679 0.5513-1.543 1.0996-0.37504 0.54831-0.54124 1.2729-0.4668 2.1524l2e-3 6e-3v8e-3c0.35961 3.175 3.0949 5.555 6.2891 5.4727h-0.0254c9.5692 0.24919 19.268 1.3955 28.846 0.58984 1.7743-0.14886 2.6675 0.16528 3.1367 0.61328 0.46919 0.44801 0.62036 1.1396 0.66016 1.9961 0.0398 0.85645-0.0452 1.8196 0.10742 2.7109 0.12069 0.70477 0.55725 1.3238 1.2246 1.7422-0.46828 1.3839-2.2942 3.3056-4.9316 5.3496-2.7746 2.1502-6.2922 4.4612-9.5918 6.7246s-6.3787 4.4718-8.3203 6.4844c-0.97081 1.0063-1.6713 1.96-1.9434 2.9258-0.26975 0.95761-0.0108 1.9554 0.80273 2.6797 0.98263 1.3081 2.1168 2.0696 3.2578 2.3223 1.163 0.25751 2.3082-4e-3 3.2383-0.60938 5.2725-3.4513 10.179-7.5369 15.262-11.244 1.493-1.0896 2.8184-2.6002 4.2344-3.4805 1.4159-0.88027 2.8114-1.2101 4.8223 4e-3 2.0387 1.2283 3.9922 2.3102 4.9453 3.7891 0.95316 1.4788 1.078 3.4053-0.72657 6.7461-3.1429 5.8134-3.2426 13.168-4.3535 19.744-0.10094 0.57593-0.47348 1.5698-0.38867 2.5801 0.0425 0.50589 0.2235 1.0401 0.63672 1.4609 0.41321 0.42087 1.0249 0.70899 1.8594 0.85352 2.4178 0.44677 4.3555-0.58654 5.7617-2.3789 1.4074-1.7939 2.3787-4.3301 3.166-7.0898 1.5747-5.5195 2.427-12.007 3.8379-14.904l0.0215-0.043 0.0117-0.0488c0.26978-1.0217 0.16628-2.0793 0.35547-2.7129 0.0946-0.31681 0.21513-0.50508 0.4707-0.65039 0.25557-0.1453 0.70303-0.24815 1.459-0.18554 1.7142 0.14197 3.4698-0.12254 4.9648 0.082 1.4951 0.20457 2.7092 0.77163 3.623 2.7305l6e-3 0.0137 8e-3 0.0117c1.9612 3.6772 3.7025 9.1781 6.2285 13.822 1.263 2.3221 2.7254 4.4383 4.5469 6.0059 1.8215 1.5676 4.0184 2.5784 6.6523 2.6465h0.0566l0.0547-0.01c0.82985-0.16724 1.3795-0.84512 1.5332-1.6562 0.15374-0.81113 0.0314-1.7833-0.24804-2.9121-0.5589-2.2575-1.789-5.1335-3.207-8.1152-1.4181-2.9817-3.0256-6.0618-4.334-8.6699-1.3084-2.6082-2.3192-4.8007-2.5234-5.7617l-0.0117-0.0547-0.0234-0.0488c-0.19661-0.42771-0.52381-0.75192-0.83985-1.0606-0.31604-0.30862-0.62952-0.59917-0.81445-0.83984s-0.20964-0.35539-0.18164-0.44726c0.028-0.0919 0.2018-0.33561 0.79883-0.625 1.4754-0.71518 2.5154-2.1428 3.668-3.0078 0.57628-0.4325 1.1552-0.72688 1.8144-0.79297 0.65928-0.0661 1.4292 0.0877 2.418 0.66407v-2e-3c7.1082 4.1607 14.456 7.8593 21.432 12.145l-0.043-0.0273c1.6483 1.2577 3.1172 1.7351 4.3359 1.6016 1.2187-0.13357 2.1329-0.91988 2.5371-1.957 0.80753-2.072-0.21754-5.0896-3.4258-6.7891l-0.01-6e-3c-7.0956-3.9423-14.04-8.1472-21.039-12.307-1.4475-0.86018-1.7198-1.7153-1.7051-2.8144 0.0147-1.0992 0.44211-2.4206 0.55859-3.8555 0.0632-0.76803 0.22838-1.2419 0.41016-1.5156 0.18178-0.27369 0.36636-0.37985 0.63281-0.44531 0.53291-0.13092 1.3817 0.0703 2.248 0.0703h8e-3c11.15-0.15985 22.318 0.0295 33.496-0.0605 1.2693-0.01 2.9237 0.23971 4.3418-0.0703 0.70903-0.15501 1.3837-0.4727 1.8496-1.0762 0.46271-0.59933 0.68053-1.4402 0.63086-2.5293 0.0354-1.4452-0.62149-2.6335-1.7324-3.4648-1.117-0.83585-2.6639-1.3683-4.5117-1.7246-3.6956-0.71256-8.6309-0.70312-13.785-0.52148-5.1542 0.18164-10.521 0.54167-15.01 0.5625-4.3843 0.0203-7.893-0.37432-9.4434-1.3379-0.14909-0.34307-0.14812-0.7577 0.20508-1.4043 0.38268-0.70059 1.1008-1.5538 2.0586-2.4766 1.9155-1.8455 4.7825-3.9865 7.8535-6.127 3.071-2.1404 6.3486-4.2852 9.1094-6.1738s4.9848-3.4876 6.0527-4.6836l-0.11524 0.0957c1.9767-1.1829 3.0695-2.5056 3.4277-3.8164 0.35825-1.3108-0.0763-2.571-0.97852-3.4297-1.8019-1.7149-5.3605-1.9887-8.5527 0.51758-5e-3 4e-3 -9e-3 4e-3 -0.0137 8e-3 -1.8358 0.91973-4.1602 2.7594-6.7891 4.918-2.6669 2.1899-5.6158 4.6888-8.5195 6.8008s-5.7692 3.8302-8.1914 4.4805c-1.2111 0.32515-2.3015 0.38411-3.2402 0.13281s-1.7464-0.80036-2.4394-1.7949l-0.0176-0.0254-0.0195-0.0215c-0.58407-0.65398-0.77714-1.222-0.78125-1.7871-4e-3 -0.56514 0.20157-1.1558 0.53515-1.7754 0.66717-1.2392 1.8348-2.5112 2.3438-3.9375l0.01-0.0274 6e-3 -0.0273c1.0962-4.7065 4.4068-10.659 6.8711-16.531 2.4643-5.872 4.1337-11.747 1.6328-16.369l-0.21679-0.39844-0.41602 0.17383c-0.73206 0.30655-1.751 0.5328-2.6719 0.82031-0.92083 0.28752-1.8259 0.60707-2.1934 1.4394v2e-3c-4.3046 9.8806-8.2058 19.883-12.312 29.795-0.46194 1.0919-0.4187 2.5397-0.69922 3.5254-0.14026 0.49287-0.33425 0.82458-0.59961 0.99219-0.26536 0.1676-0.68144 0.24418-1.4609 0.0176h-4e-3c-1.3535-0.38228-2.7747-0.61084-3.9141-1.291-1.1393-0.68018-2.0569-1.7721-2.4492-4.1211-1.6697-9.968-5.0869-19.602-7.6699-29.336v-2e-3c-0.33497-1.248-0.97117-2.0617-1.8027-2.498-0.83157-0.43635-1.7928-0.51172-2.8203-0.51172h-4e-3zm0.01 1c0.97038 2.9e-4 1.7691 0.0908 2.3516 0.39648 0.58287 0.30586 1.0158 0.81124 1.3008 1.8711 2.597 9.7864 6.0001 19.392 7.6504 29.244 0.42769 2.561 1.5612 4.0041 2.9219 4.8164 1.3607 0.81232 2.8897 1.0349 4.1562 1.3926 0.9383 0.27184 1.7037 0.2246 2.2695-0.13281 0.56683-0.35802 0.85386-0.95482 1.0274-1.5644 0.34698-1.2193 0.35014-2.6801 0.6582-3.4082l2e-3 -2e-3v-2e-3c4.1124-9.9259 8.0121-19.922 12.307-29.779 0.12255-0.27762 0.71755-0.62314 1.5742-0.89062 0.69667-0.21753 1.4972-0.43397 2.2441-0.69141 1.9711 4.0985 0.57275 9.4906-1.791 15.123-2.4332 5.798-5.7681 11.74-6.9219 16.693l0.0156-0.0547c-0.40103 1.1238-1.5284 2.4025-2.2812 3.8008-0.37642 0.69915-0.66214 1.4476-0.65625 2.2559 6e-3 0.79998 0.3239 1.6312 1.0195 2.4199 0.80415 1.1423 1.8282 1.8595 2.9805 2.168 1.1613 0.31089 2.4294 0.22329 3.7559-0.13281 2.6528-0.71221 5.5752-2.4957 8.5215-4.6387 2.9463-2.143 5.9083-4.6533 8.5664-6.8359s5.0312-4.04 6.6836-4.8496l0.0488-0.0234 0.041-0.0332c2.8844-2.2724 5.9042-1.8761 7.2598-0.58594 0.67779 0.64509 0.96667 1.47 0.70117 2.4414-0.26549 0.97139-1.1432 2.1255-2.9766 3.2226l-0.0664 0.0391-0.0508 0.0566c-0.89208 0.99904-3.1235 2.6439-5.8711 4.5234-2.7476 1.8796-6.0295 4.0276-9.1172 6.1797s-5.9811 4.304-7.9766 6.2266c-0.99773 0.9613-1.7728 1.8611-2.2402 2.7168s-0.63548 1.748-0.21679 2.4922l0.0566 0.10156 0.0977 0.0664c1.9622 1.3394 5.643 1.5836 10.182 1.5625 4.5387-0.0211 9.909-0.38164 15.041-0.5625s10.031-0.17666 13.561 0.5039c1.7648 0.34028 3.181 0.85406 4.1016 1.543s1.3702 1.4977 1.3359 2.6543v0.0215l2e-3 0.0195c0.0462 0.94487-0.14114 1.5155-0.42773 1.8867-0.2866 0.37122-0.70747 0.5872-1.2734 0.71094-1.1319 0.24747-2.744 0.0364-4.1348 0.0469-11.16 0.0899-22.328-0.0995-33.496 0.0605-0.66369 0-1.5742-0.26509-2.4863-0.041-0.45604 0.11204-0.91342 0.38885-1.2285 0.86328-0.3151 0.47443-0.50049 1.1144-0.57227 1.9863-0.10352 1.2751-0.54472 2.5955-0.5625 3.9238-0.0178 1.3283 0.51281 2.6877 2.1953 3.6875 6.9976 4.1586 13.951 8.3701 21.072 12.326l4e-3 4e-3 6e-3 2e-3c2.8632 1.5116 3.5498 4.0612 2.9707 5.5469-0.28953 0.74285-0.84444 1.231-1.7129 1.3262-0.86846 0.0952-2.1044-0.24507-3.6211-1.4023l-0.0195-0.0156-0.0215-0.0137c-7.024-4.3148-14.377-8.015-21.449-12.154l-2e-3 -2e-3c-1.1212-0.65361-2.1251-0.88282-3.0215-0.79297-0.89635 0.0899-1.6532 0.49008-2.3144 0.98633-1.3224 0.9925-2.3593 2.3553-3.5039 2.9102-0.71297 0.3456-1.1636 0.71836-1.3203 1.2324-0.15669 0.51406 0.0744 0.99457 0.3457 1.3477 0.27132 0.35308 0.61339 0.6555 0.91016 0.94531s0.54052 0.56943 0.6289 0.76172l-0.0352-0.10352c0.27075 1.274 1.2953 3.3826 2.6094 6.002 1.3141 2.6194 2.9153 5.6921 4.3223 8.6504 1.4069 2.9583 2.617 5.8108 3.1406 7.9258 0.2618 1.0575 0.34166 1.9306 0.23633 2.4863-0.102 0.5382-0.28514 0.73452-0.72461 0.83399-2.3521-0.083-4.2759-0.95679-5.9375-2.3867-1.6841-1.4493-3.0908-3.4642-4.3203-5.7246-2.4546-4.5127-4.1808-9.9712-6.2148-13.793l-2e-3 -4e-3c-1.0363-2.2177-2.6894-3.0641-4.3906-3.2969-1.7024-0.23293-3.4718 0.0421-5.0176-0.0859-0.87405-0.0724-1.5336 0.0263-2.0371 0.3125-0.50349 0.28626-0.79389 0.75995-0.93555 1.2344-0.28331 0.94886-0.16306 1.9858-0.36328 2.7441l0.0352-0.0918c-1.5892 3.2631-2.3576 9.6604-3.9004 15.068-0.77142 2.704-1.7324 5.1403-2.9922 6.7461-1.2598 1.6058-2.7225 2.399-4.7969 2.0137l-4e-3 -2e-3h-2e-3c-0.69556-0.12047-1.09-0.33774-1.3184-0.57031-0.22835-0.23257-0.32474-0.49894-0.35352-0.8418-0.0576-0.6857 0.24919-1.5856 0.37891-2.3301v-2e-3c1.1291-6.6836 1.269-13.929 4.2461-19.436 1.8955-3.5092 1.8468-5.963 0.6875-7.7617-1.1591-1.7982-3.2567-2.8921-5.2676-4.1035h-2e-3c-2.2784-1.3747-4.2616-0.99503-5.8652 2e-3 -1.6041 0.99722-2.9399 2.5311-4.2969 3.5215-5.1174 3.7327-10.011 7.8061-15.219 11.215-0.72959 0.47416-1.5852 0.66806-2.4766 0.47071-0.89196-0.19749-1.842-0.79356-2.7266-1.998l-0.0332-0.043-0.041-0.0371c-0.59984-0.52433-0.70475-0.99051-0.51172-1.6758s0.78596-1.5572 1.6992-2.5039c1.8265-1.8933 4.8781-4.0962 8.166-6.3516 3.2879-2.2554 6.8151-4.5716 9.6387-6.7598 2.8236-2.1882 4.9859-4.1829 5.4551-6.1562l0.10938-0.46094-0.45313-0.13477c-0.72027-0.21326-0.90975-0.6027-1.0293-1.3008-0.11954-0.69808-0.0517-1.6418-0.0957-2.5879-0.0439-0.94604-0.21326-1.9525-0.96875-2.6738s-1.9895-1.0479-3.9102-0.88672c-9.4422 0.7943-19.106-0.34099-28.736-0.59179h-0.0254c-2.6826 0.0691-4.9624-1.9147-5.2676-4.5801-0.0582-0.7091 0.0711-1.167 0.29492-1.4941 0.22496-0.32889 0.56761-0.55778 1.0391-0.71875 0.9429-0.32194 2.3409-0.30716 3.6191-0.28711 11.073 0.19005 22.153 0.28121 33.221 0.45117h8e-3c1.0066 0 1.7426-0.31191 2.209-0.82227 0.4664-0.51035 0.65116-1.146 0.78516-1.7461s0.22177-1.184 0.39062-1.627c0.16886-0.4429 0.36905-0.7251 0.80274-0.90235l0.54883-0.22461-0.3125-0.50195c-6.3399-10.176-18.181-15.188-26.814-22.771l-0.0274-0.0234c-0.61654-0.46857-0.87501-0.90638-0.98437-1.3613-0.10937-0.45495-0.058-0.95684 0.0742-1.5137 0.21488-0.90535 0.56171-1.9398 0.56446-3.0234 2.6971 0.28807 6.0521 1.8575 9.6445 4.1621 3.7878 2.4299 7.7983 5.5458 11.541 8.4004 3.7427 2.8546 7.2076 5.447 9.9922 6.8496 1.3923 0.70128 2.6148 1.1212 3.6914 1.0703 1.0752-0.0509 1.9864-0.69986 2.4023-1.8418v-2e-3c2.1726-5.8609 0.72965-11.802-0.98828-17.701-1.7181-5.9-3.7078-11.787-2.8945-17.602l2e-3 -0.0195 2e-3 -0.0215c0.0466-0.84504-0.15018-1.7301-0.0469-2.291 0.0517-0.28046 0.13975-0.45294 0.33984-0.59961 0.19949-0.14622 0.56566-0.27729 1.2109-0.28711zm-134 44.656c-3.34 0.16762-6.7195 0.58735-10.088 1.2949-13.474 2.8303-26.749 10.313-36.297 24.885l-0.39844 0.60937 0.71289 0.1543c12.887 2.7826 25.661 5.0473 38.012 3.8027 12.351-1.2445 24.274-6.0247 35.35-17.262l0.75976-0.77148-1.0801-0.0781c-13.232-0.94728-24.161 2.7833-35.303 5.1953-1.1968 0.0991-4.6932 0.61451-7.8047 0.67578-1.5628 0.0308-3.0198-0.0648-3.9316-0.34766-0.45591-0.14141-0.75764-0.32877-0.89258-0.49609-0.12412-0.1539-0.14171-0.30804-0.07031-0.58203 0.70631-0.82844 1.2702-1.6967 1.9355-2.3887 0.70294-0.73102 1.5058-1.289 2.8242-1.5156 14.117-2.4014 27.549-7.6344 43.627-7.9922l0.16602-0.96679c-7.8473-2.965-17.501-4.7197-27.521-4.2168zm147.92 0.32617c-6.1495-0.56415-10.873 1.3974-14.057 4.6445-3.1837 3.2471-4.8352 7.7477-4.9902 12.258-0.15505 4.5101 1.1836 9.0477 4.0508 12.375 2.8672 3.3273 7.2783 5.408 13.096 4.9883h0.0195l0.0176-4e-3c4.1284-0.60123 9.1069-1.4233 12.953-3.3008 1.9231-0.93875 3.5716-2.1468 4.6582-3.7559s1.5832-3.6157 1.2305-6.0195l6e-3 0.043c-0.43336-7.5082-2.0398-12.574-4.8984-15.9-2.8586-3.3268-6.9334-4.8364-12.084-5.3281zm-147.87 0.67578c8.9037-0.44457 17.414 1.0086 24.68 3.418-15.099 0.83276-27.964 5.5247-41.172 7.7715-1.5316 0.26332-2.5774 0.97515-3.377 1.8066-0.79956 0.83148-1.3798 1.7652-2.0742 2.5547l-0.07227 0.082-0.03125 0.10351c-0.17239 0.56304-0.0726 1.1435 0.25586 1.5508 0.32846 0.40729 0.81231 0.64969 1.375 0.82422 1.1254 0.34906 2.6351 0.4243 4.2461 0.39258 3.222-0.0634 6.8634-0.59936 7.9023-0.68359l0.0332-2e-3 0.03125-8e-3c10.833-2.3428 21.316-5.7629 33.729-5.1699-10.638 10.379-21.942 14.921-33.738 16.109-11.922 1.2013-24.339-0.93425-36.941-3.6348 9.3662-13.923 22.163-21.101 35.219-23.844 3.3141-0.69618 6.6443-1.1072 9.9355-1.2715zm147.77 0.32032c5.0094 0.47825 8.7705 1.8987 11.422 4.9844s4.2296 7.9148 4.6562 15.307l2e-3 0.0215 4e-3 0.0215c0.32226 2.1961-0.11717 3.9029-1.0703 5.3144-0.95314 1.4115-2.4489 2.5292-4.2695 3.418-3.6348 1.7743-8.5278 2.6085-12.635 3.207-5.5401 0.3958-9.5828-1.5468-12.254-4.6465-2.6734-3.1024-3.958-7.3988-3.8106-11.688 0.14744-4.2887 1.7244-8.5517 4.7051-11.592 2.9803-3.0397 7.3555-4.8879 13.25-4.3476zm-96.873 126c-4.4439 0.0294-8.8549 1.467-12.084 4.3555-3.2264 2.8861-5.2393 7.2362-4.8828 12.936-0.18621 5.779 2.0732 10.214 5.5234 13.156 3.4576 2.9488 8.0836 4.4218 12.65 4.4199 4.5668-2e-3 9.0901-1.4799 12.328-4.5059 3.2347-3.0228 5.1428-7.6024 4.4922-13.625-0.0108-5.5562-2.2947-9.7907-5.6894-12.586-3.4028-2.8019-7.894-4.1798-12.338-4.1504zm6e-3 1c4.2323-0.028 8.5047 1.2931 11.697 3.9219 3.1924 2.6288 5.328 6.5472 5.328 11.852v0.0273l4e-3 0.0274c0.62842 5.7732-1.1653 9.984-4.1816 12.803-3.0163 2.8187-7.2977 4.2345-11.648 4.2363-4.3507 2e-3 -8.7532-1.4126-12-4.1816-3.2468-2.769-5.3618-6.8718-5.1739-12.395v-0.0254l-2e-3 -0.0234c-0.34418-5.4435 1.539-9.4467 4.5527-12.143s7.1915-4.0716 11.424-4.0996zm61.445 1.2344-0.88672 1.082c-8.3942 10.248-11.089 21.898-10.262 33.566 0.82705 11.668 5.156 23.365 10.789 33.828l4e-3 6e-3 4e-3 8e-3c0.75292 1.2958 1.4507 2.2573 2.498 2.5117 0.52367 0.1272 1.0901 0.0363 1.6543-0.24023 0.56421-0.27653 1.1486-0.7305 1.8086-1.375l4e-3 -4e-3c10.695-10.695 12.341-30.792 10.857-45.629-0.74161-7.4186-2.2505-13.501-3.9492-16.566-0.42469-0.76636-0.86037-1.3513-1.3574-1.7305-0.49705-0.37918-1.1378-0.52991-1.6953-0.2832-0.55748 0.2467-0.97217 0.77777-1.3398 1.541-0.36767 0.76325-0.68847 1.7851-0.96875 3.1113v8e-3l-2e-3 6e-3c-0.38166 2.1204-0.29745 5.9241-0.12695 10.533 0.17051 4.6091 0.43934 9.991 0.48047 15.109 0.0411 5.1184-0.15066 9.9787-0.88281 13.494-0.36608 1.7577-0.87118 3.1754-1.5039 4.1035s-1.3263 1.3632-2.248 1.3496h-0.0312c-0.86168 0.0405-1.3952-0.16603-1.7871-0.51367-0.39189-0.34764-0.65712-0.88041-0.82422-1.5586-0.33421-1.3564-0.23438-3.2192-0.23438-4.7988zm-1 3.0527v44.506c0 1.5304-0.12962 3.4429 0.26367 5.0391 0.19665 0.79808 0.53376 1.535 1.1328 2.0664 0.59575 0.52849 1.4352 0.80732 2.4805 0.76172 1.2665 0.0131 2.3213-0.67876 3.0742-1.7832 0.75595-1.1088 1.2751-2.633 1.6562-4.4629 0.76222-3.6598 0.94567-8.5572 0.9043-13.705-0.0414-5.1479-0.3123-10.54-0.48242-15.139-0.17006-4.597-0.22462-8.4341 0.11328-10.314 1.3e-4 -7.1e-4 -1.3e-4 -3e-3 0-4e-3 0.26868-1.2661 0.57504-2.2221 0.88672-2.8691 0.31335-0.65049 0.6331-0.96733 0.84375-1.0606 0.21064-0.0932 0.37127-0.0757 0.68555 0.16406 0.31427 0.23975 0.70194 0.72347 1.0879 1.4199 1.5438 2.7858 3.0947 8.8453 3.8281 16.182 1.4668 14.673-0.28376 34.538-10.568 44.822-0.6127 0.59762-1.1297 0.98398-1.5449 1.1875-0.41642 0.20409-0.70969 0.23327-0.97852 0.16797-0.53712-0.13047-1.153-0.80919-1.8691-2.041-7.1e-4 -1e-3 -1e-3 -7.2e-4 -2e-3 -2e-3 -5.5833-10.374-9.8495-21.946-10.662-33.41-0.77796-10.976 1.7362-21.81 9.1504-31.525z" color="#000000" color-rendering="auto" dominant-baseline="auto" image-rendering="auto" shape-rendering="auto" solid-color="#000000" stop-color="#000000"/>
</g>
</svg>
